<?xml version="1.0" encoding="utf-8"?>
<!-- Generator: Adobe Illustrator 24.0.2, SVG Export Plug-In . SVG Version: 6.00 Build 0)  -->
<svg version="1.1" id="Layer_1" xmlns="http://www.w3.org/2000/svg" xmlns:xlink="http://www.w3.org/1999/xlink" x="0px" y="0px"
	 viewBox="0 0 1900 970.5" style="enable-background:new 0 0 1900 970.5;" xml:space="preserve">
<style type="text/css">
	.st0{fill:#FFFFFF;}
</style>
<g>
	<path class="st0" d="M0,652.8c2.8-21.9,3.6-44.2,8.6-65.6C32.6,484,90,407.1,190.7,368.8c73.9-28.1,147.9-25.3,219.6,10.3
		c20.4,10.1,38.5,23.7,54,40.5c1.1,1.2,2.3,2.4,3.5,3.5c0.3,0.3,0.9,0.3,2.2,0.5c0-17.5,0-34.8,0-52.9c68.8,0,136.8,0,205.4,0
		c0,134.1,0,268.4,0,403.7c-3,0-5.9,0-8.8,0c-42.5,0.2-85.1,0.4-127.6,0.4c-5.5,0-8.9,1.7-12.3,6c-40.4,52.9-81,105.8-121.8,158.4
		c-3.3,4.3-8.1,8.2-13.1,10.3c-73.5,30.4-147,27-218.1-5.8c-88-40.6-140.2-112-163.5-205C5,717.9,3.9,696.1,1,674.8
		c-0.4-3-0.6-5.9-1-8.9C0,661.6,0,657.2,0,652.8z M476.9,661.3c0.3-23.2-4.7-45.1-15.4-65.6C421.4,518.6,319.1,515.1,266,553
		c-35.8,25.6-51.8,61.8-52.8,104.8c-0.9,38,9.9,72.4,38.5,99.1c40.3,37.6,112.2,45.4,162.1,17.7C458.1,750,475.7,710.1,476.9,661.3z
		"/>
	<path class="st0" d="M1268.6,0c17.7,4.3,35.6,7.7,52.9,13.2c16.9,5.3,16.6,6.3,16.6,24.1c0,50,0,100,0,150.1c0,3.2,0,6.4,0,10
		c-14.8-5-28.5-10.3-42.6-14.3c-18.1-5.2-36.6-5.8-54.9-0.9c-20.5,5.5-33.4,19.5-38.8,39.5c-3.6,13.3-6.2,27.3-6.5,41.1
		c-0.9,33.9-0.3,67.8-0.3,101.7c0,1.6,0.3,3.1,0.5,5.4c34.3,0,68.3,0,105,0c-5.3,5.4-8.9,9.2-12.6,12.8
		c-57.1,55.6-114.2,111.2-171.3,166.8c-36.2,35.2-72.4,70.4-108.3,105.9c-5.8,5.7-11.6,6-19.3,3.7c0-39.2,0-78.7,0-119.1
		c-17.8,0-34.8,0-52.3,0c0-56.9,0-112.8,0-169.7c17.2,0,34.2,0,52.2,0c0-4,0-6.9,0-9.8c0.4-38.8,1.1-77.6,1.3-116.4
		c0.8-122.6,91.2-201.7,167.8-227.6c21.2-7.2,43.9-10.2,65.9-15.1c2.4-0.5,4.8-1,7.2-1.4C1243.5,0,1256,0,1268.6,0z"/>
	<path class="st0" d="M1900,949.5c-68.2,0-135.7,0-204.1,0c0-21.1,0-41.8,0-64c-2.4,1.8-3.8,2.4-4.6,3.5
		c-29.4,42.9-71.6,65.6-121.2,75.1c-135.4,26.1-266.7-47.1-319.3-177.9c-31.8-79.2-33-159.4-5.2-240.1c1.2-3.5,3.1-7.1,5.6-9.7
		c52.8-54.2,105.6-108.2,158.6-162.2c2.6-2.6,5.7-5.4,9.1-6.5c75.2-25.4,148.9-23.4,220.2,13.6c19.3,10,36.3,23.2,51,39.3
		c1.2,1.3,2.7,2.4,5.4,4.9c0-19,0-36.6,0-54.6c68.6,0,136.1,0,204.3,0C1900,563.6,1900,756.1,1900,949.5z M1438.2,667.2
		c0.3,28.3,10,59.5,34.1,85.6c41.7,45.2,121.5,48,169.1,21c50.6-28.7,68.7-87.3,58.6-140c-11.3-58.8-49.9-95.2-110.5-102.9
		C1501.3,519.7,1438.4,578.2,1438.2,667.2z"/>
	<path class="st0" d="M904.6,654.4c-24-1.6-47.3-3-70.7-4.8c-6.2-0.5-10.5,1.1-15.1,5.6c-34.5,33.8-69.3,67.3-104,100.8
		c-0.9,0.9-2,1.7-3.8,3.3c0-249.4,0-497.9,0-747c64.1,0,128.6,0,193.6,0C904.6,225.9,904.6,439.7,904.6,654.4z"/>
	<path class="st0" d="M989.4,949.5c0-64.3,0-128,0-192.7c9.6,0.8,18.7,1.1,27.8,2.3c5.9,0.8,10.1-0.7,14.4-5
		c45.3-45.8,90.8-91.4,136.3-137c8.2-8.3,16.8-16.2,26.2-25.3c0,120,0,238.6,0,357.7C1125.8,949.5,1057.8,949.5,989.4,949.5z"/>
	<path class="st0" d="M904.7,750.2c0,66.8,0,132.6,0,199.1c-64.5,0-128.6,0-193.4,0c0-26.3,0-52.7,0-77.1
		c6.5-4.5,12.5-7.8,17.4-12.4c38.6-36.6,77-73.5,115.5-110.1c1.9-1.8,5.2-3.3,7.7-3.2C869.2,747.5,886.6,748.9,904.7,750.2z"/>
	<path class="st0" d="M1377.2,190.9c73.1-25.6,144.6-50.6,218.2-76.3c-24.1,73.8-47.8,146.1-72.1,220.5
		c-6.7-19.8-12.8-37.6-18.9-55.4c-5.4-16-10.6-32.1-16.5-48c-1.1-3-4.4-6.2-7.3-7.2c-31.8-10.5-63.7-20.6-95.6-30.8
		C1382.9,193,1380.9,192.2,1377.2,190.9z"/>
	<path class="st0" d="M501.2,949.1c19.3-26.4,37.8-51.8,56.5-76.9c1.2-1.7,4-3,6-3c36.5-0.1,73,0,109.5,0.1c0.5,0,1,0.3,2,0.7
		c0,26.1,0,52.5,0,79.2C617.5,949.1,560,949.1,501.2,949.1z"/>
</g>
</svg>
